<?xml version="1.0" encoding="utf-8"?>
<!-- Generator: Adobe Illustrator 19.2.1, SVG Export Plug-In . SVG Version: 6.00 Build 0)  -->
<svg version="1.1" id="Layer_1" xmlns="http://www.w3.org/2000/svg" xmlns:xlink="http://www.w3.org/1999/xlink" x="0px" y="0px"
	 viewBox="0 0 54.5 63" style="enable-background:new 0 0 54.5 63;" xml:space="preserve">
<style type="text/css">
	.st0{fill:#FFFFFF;}
	.st1{fill:#FFD600;}
</style>
<g>
	<g id="XMLID_1_">
		<g>
			<path class="st0" d="M17.8336086,51.3644485c0,2.6100006,0,5.2299995,0,7.8400002
				c0,0.5300026-0.3700008,0.8100014-0.8900013,0.8100014c-2.329999,0-12.7699986,0-12.8699989,0
				c-0.5199997-0.0099983-0.8099999-0.2900009-0.8099999-0.8100014c0-6.9499969-0.01-14.1100006-0.01-21.0699997
				c0-0.6100006,0.22-1.0299988,0.8399999-1.0299988h12.7400007c0.5900002,0,1,0.6199989,1,1.2099991
				c0,2.4900017,0,4.9700012,0,7.4599991V51.3644485z"/>
			<path class="st0" d="M34.513607,36.2444496c0.0200005-0.0499992,0.0400009-0.0900002,0.0499992-0.1399994h3.4500008
				c3.0400009,0,6.1900024,0,9.2800026,0c0.0099983,0,0.0199966,0,0.0199966,0c0.5900002,0,1.0700035,0.3499985,1.4900017,0.5900002
				c0.6399994,0.3699989,1.2999992,0.9199982,1.8100014,1.5600014c0.7399979,0.9299965,0.8499985,2.0999985,0.2999992,3.329998
				c-0.1300011,0.2999992-0.2900009,0.6100006-0.4799995,0.9000015c-0.1500015,0.2299995-0.170002,0.4399986-0.0600014,0.7099991
				c0.3899994,0.9199982,0.5200005,1.829998,0.4099998,2.7200012c-0.1100006,0.8099976-0.5099983,1.3999977-1.2299995,1.8099976
				c-0.0699997,0.0400009-0.1399994,0.0800018-0.2000008,0.1100006c-0.3099976,0.170002-0.3400002,0.2000008-0.2700005,0.5099983
				c0.0100021,0.0700035,0.0300026,0.170002,0.0500031,0.2900009c0.1899986,1.2200012,0.1699982,2.2200012-0.0800018,3.1599998
				c-0.2599983,0.9700012-0.7700005,1.5400009-1.5999985,1.7900009c-0.25,0.0699997-0.3800011,0.1199989-0.4400024,0.2299995
				c-0.0599976,0.1199989,0,0.2700005,0.0800018,0.5200005c0.1899986,0.6100006,0.2099991,1.25,0.0299988,1.9799995
				c-0.2000008,0.8300018-0.7399979,1.1800003-1.6599998,1.5800018c-0.7099991,0.2999992-1.4099998,0.2099991-2.1199989,0.2099991
				c0,0,0,0-0.0100021,0c-3.079998,0-19.2499981,0.2900009-19.329998,0.2900009
				c-1.4700012-0.0800018-2.5300007-0.5400009-3.2200012-1.670002c-0.0699997-0.1100006-0.1099987-0.1899986-0.1099987-0.3099976
				c-0.0100002-2.6400032-0.0100002-5.2600021-0.0100002-7.9099998c0-2.6400032,0-5.2700005-0.0100002-7.920002
				c0-0.1699982,0.0599995-0.25,0.2199993-0.3600006c2.0699997-1.329998,3.8700008-3.0499992,5.5200005-5.2700005
				c1.3500004-1.8099976,2.5300007-3.9299984,3.6000004-6.4999981c0.5599995-1.3400002,0.789999-2.8000011,0.75-4.7400017
				c-0.0100002-0.7099991-0.0699997-1.4299984-0.1200008-2.1199989l-0.0299988-0.3600006
				c-0.0100002-0.2099991,0.0299988-0.3199997,0.1799984-0.4399986c0.4400005-0.3400002,0.8700008-0.5200005,1.289999-0.5200005
				c0.4000015,0,0.8000031,0.1599998,1.2100029,0.4599991c1.0599976,0.8100014,1.8400002,1.9099998,2.329998,3.2700005
				c0.4900017,1.3500004,0.6800003,2.8600006,0.5900002,4.6200008c-0.1300011,2.4899998-0.6499977,4.9399986-1.6300011,7.4799995
				h-0.1499977l0.0600014,0.0499992C34.4836082,36.1744499,34.5036087,36.2244492,34.513607,36.2444496z"/>
			<path class="st0" d="M32.4636078,1.3644499c0.5,0.5-0.0900002,2.5300002-2.1399994,4.5799999
				c-2.0599995,2.0500002-4.0900002,2.6399999-4.5799999,2.1500001c-0.5-0.5,0.0900002-2.5300002,2.1499996-4.5799999
				C29.9436073,1.4644499,31.973608,0.8744498,32.4636078,1.3644499z"/>
			<path class="st1" d="M34.4736099,36.1544495l-0.0600014-0.0499992h0.1499977
				c-0.0099983,0.0499992-0.0299988,0.0900002-0.0499992,0.1399994
				C34.5036087,36.2244492,34.4836082,36.1744499,34.4736099,36.1544495z"/>
			<path class="st1" d="M27.0436077,2.6644499c2.3999996-2.3900001,5.0900021-3.3200002,6.2699986-2.1400001l1.0200005,1.01
				l-0.0099983,0.01c1.0499992,1.2199999,0.1199989,3.8400002-2.2200012,6.1800003
				c-2.3499985,2.3400002-4.9699993,3.2699995-6.1799984,2.2199993l-0.0100002,0.0100002l-1.0200005-1.0199995
				C23.723608,7.7644501,24.6436081,5.0644498,27.0436077,2.6644499z M32.4636078,1.3644499
				c-0.4899998-0.49-2.5200005,0.1-4.5699997,2.1500001c-2.0599995,2.05-2.6499996,4.0799999-2.1499996,4.5799999
				c0.4899998,0.4899998,2.5200005-0.0999999,4.5799999-2.1500001C32.3736076,3.8944499,32.9636078,1.8644499,32.4636078,1.3644499z
				"/>
			<path class="st1" d="M30.7436085,23.7144489c0.039999,1.9400005-0.1900005,3.4000015-0.75,4.7400017
				c-1.0699997,2.5699997-2.25,4.6900005-3.6000004,6.4999981c-1.6499996,2.2200012-3.4500008,3.9400024-5.5200005,5.2700005
				c-0.1599998,0.1100006-0.2199993,0.1900024-0.2199993,0.3600006c0.0100002,2.6500015,0.0100002,5.2799988,0.0100002,7.920002
				c0,2.6499977,0,5.2699966,0.0100002,7.9099998c0,0.1199989,0.039999,0.1999969,0.1099987,0.3099976
				c0.6900005,1.1300011,1.75,1.5900002,3.2200012,1.670002c0.0799999,0,16.25-0.2900009,19.329998-0.2900009
				c0.0100021,0,0.0100021,0,0.0100021,0c0.7099991,0,1.4099998,0.0900002,2.1199989-0.2099991
				c0.920002-0.4000015,1.4599991-0.75,1.6599998-1.5800018c0.1800003-0.7299995,0.1599998-1.3699989-0.0299988-1.9799995
				c-0.0800018-0.25-0.1399994-0.4000015-0.0800018-0.5200005c0.0600014-0.1100006,0.1900024-0.1599998,0.4400024-0.2299995
				c0.829998-0.25,1.3400002-0.8199997,1.5999985-1.7900009c0.25-0.9399986,0.2700005-1.9399986,0.0800018-3.1599998
				c-0.0200005-0.1199989-0.0400009-0.2199974-0.0500031-0.2900009c-0.0699997-0.3099976-0.0399971-0.3399963,0.2700005-0.5099983
				c0.0600014-0.0299988,0.1300011-0.0699997,0.2000008-0.1100006c0.7200012-0.4099998,1.1199989-1,1.2299995-1.8099976
				c0.1100006-0.8900032-0.0200005-1.8000031-0.4099998-2.7200012c-0.1100006-0.2700005-0.0900002-0.4799995,0.0600014-0.7099991
				c0.1899986-0.2900009,0.3499985-0.6000023,0.4799995-0.9000015c0.5499992-1.2299995,0.4399986-2.4000015-0.2999992-3.329998
				c-0.5100021-0.6400032-1.170002-1.1900024-1.8100014-1.5600014c-0.4199982-0.2400017-0.9000015-0.5900002-1.4900017-0.5900002
				c0,0-0.0099983,0-0.0199966,0c-3.0900002,0-6.2400017,0-9.2800026,0h-3.4500008
				c0.9800034-2.5400009,1.5-4.9899998,1.6300011-7.4799995c0.0900002-1.7600002-0.0999985-3.2700005-0.5900002-4.6200008
				c-0.4899979-1.3600006-1.2700005-2.4599991-2.329998-3.2700005c-0.4099998-0.2999992-0.8100014-0.4599991-1.2100029-0.4599991
				c-0.4199982,0-0.8499985,0.1800003-1.289999,0.5200005c-0.1499996,0.1199989-0.1899986,0.2299995-0.1799984,0.4399986
				l0.0299988,0.3600006C30.6736088,22.2844505,30.7336082,23.0044498,30.7436085,23.7144489z M16.8536072,62.9844513
				c0,0-12.7599993-0.0200005-12.8799992-0.0200005c-2.1599998-0.0400009-3.73-1.6900024-3.73-3.8500023
				c0-6.9599991,0-14.0200005,0-20.9799995c0-2.2599983,1.5799999-4.0299988,3.8499999-4.0299988h8.4899998h4.250001
				c1.7299995,0,3.0499992,1.1300011,3.5699997,2.579998c1.2999992-1,2.4799995-2.0299988,3.5900002-3.5199966
				c1.1999989-1.6100025,2.25-3.5200024,3.2299995-5.8700008c0.3899994-0.9200001,0.5499992-2.0100002,0.5200005-3.5200005
				c-0.0100002-0.5900002-0.0500011-1.2000008-0.1200008-1.960001l-0.0200005-0.3899994
				c-0.0799999-1.1900005,0.3900013-2.25,1.3200016-2.9899998c0.9699993-0.7700005,2.0299988-1.1599998,3.1399975-1.1599998
				c1.0700035,0,2.0800018,0.3599987,3.0300026,1.0799999c1.5200005,1.1599998,2.6499977,2.7199993,3.329998,4.6399994
				c0.6300011,1.7299995,0.8800011,3.6200008,0.7700005,5.7800007c-0.079998,1.6199989-0.3099976,3.2099991-0.7000008,4.8199978
				c2.8900032,0,5.8600006,0,8.8199997-0.0099983c1.1300011,0,2.1000023,0.25,2.9800034,0.75
				c0.8499985,0.4900017,1.829998,1.1300011,2.6699982,2.170002c1.4399986,1.8199997,1.6899986,4.0499992,0.7000008,6.2899971
				c-0.0499992,0.1000023-0.1000023,0.2100029-0.1500015,0.3100014c0.2999992,1.0600014,0.3800011,2.1399994,0.2400017,3.2000008
				c-0.1599998,1.2399979-0.6800003,2.2899971-1.5100021,3.1199989c0.0699997,1.1199989-0.0299988,2.1399994-0.2899971,3.1399994
				c-0.3600006,1.3300018-1,2.2400017-1.7100029,2.8500023c0,0.5199966-0.0699997,1.0499992-0.1999969,1.5900002
				c-0.2900009,1.2299995-1.1200027,2.8999977-3.4000015,3.8899994c-1.1100006,0.4699974-2.1800003,0.6899986-3.3199997,0.6899986
				c-3.0800018-0.0099983-19.3500004,0.0499992-19.4799995,0.0400009c-1.4400005-0.0699997-2.5600014-0.4900017-3.4400005-1.0300026
				C19.8636074,62.0244484,18.5236073,62.9844513,16.8536072,62.9844513z M4.0736079,60.0144501
				c0.1000004,0,10.5400009,0,12.8699989,0c0.5200005,0,0.8900013-0.2799988,0.8900013-0.8100014
				c0-2.6100006,0-5.2299995,0-7.8400002v-5.5900002c0-2.4899979,0-4.9699974,0-7.4599991
				c0-0.5900002-0.4099998-1.2099991-1-1.2099991H4.0936079c-0.6199999,0-0.8399999,0.4199982-0.8399999,1.0299988
				c0,6.9599991,0.01,14.1200027,0.01,21.0699997C3.263608,59.7244492,3.5536082,60.0044518,4.0736079,60.0144501z"/>
		</g>
	</g>
</g>
</svg>
