<?xml version="1.0" standalone="no"?>
<!DOCTYPE svg PUBLIC "-//W3C//DTD SVG 20010904//EN"
 "http://www.w3.org/TR/2001/REC-SVG-20010904/DTD/svg10.dtd">
<svg version="1.0" xmlns="http://www.w3.org/2000/svg"
 width="192.000000pt" height="192.000000pt" viewBox="0 0 192.000000 192.000000"
 preserveAspectRatio="xMidYMid meet">
<metadata>
Created by potrace 1.11, written by Peter Selinger 2001-2013
</metadata>
<g transform="translate(0.000000,192.000000) scale(0.100000,-0.100000)"
fill="#000000" stroke="none">
<path d="M880 1845 c-50 -23 -75 -59 -107 -150 -15 -44 -28 -84 -29 -90 -4
-18 -84 -259 -94 -285 l-11 -26 -253 0 -254 -1 -46 -27 c-63 -37 -90 -91 -83
-163 3 -29 15 -66 26 -82 11 -15 77 -68 146 -117 70 -49 132 -94 138 -100 7
-5 40 -29 75 -53 48 -32 62 -47 57 -59 -8 -19 -47 -141 -51 -157 -1 -5 -23
-73 -49 -149 -64 -191 -62 -234 12 -304 33 -31 38 -32 111 -31 90 1 74 -8 286
149 86 63 167 121 179 129 22 13 34 6 225 -133 l201 -146 80 0 c70 0 83 3 109
25 54 45 78 135 53 197 -6 13 -40 115 -76 227 l-67 204 23 19 c29 22 274 199
297 213 66 42 110 91 123 138 21 79 -11 157 -83 197 -41 23 -48 24 -294 24
-139 1 -255 4 -258 7 -4 4 -9 17 -11 30 -3 13 -9 33 -14 44 -10 20 -24 60 -80
240 -45 142 -67 187 -107 214 -45 31 -125 38 -174 16z"/>
</g>
</svg>
